<svg width="848" height="1028" viewBox="0 0 848 1028" fill="none" xmlns="http://www.w3.org/2000/svg">
<path fill-rule="evenodd" clip-rule="evenodd" d="M715.801 196.546V130.977H442.594V404.183H508.163V321.948H650.231V403.91H715.801V321.948V256.379V196.273V196.546ZM650.231 256.652H508.163V196.546H650.231V256.652Z" fill="white"></path>
<path fill-rule="evenodd" clip-rule="evenodd" d="M398.883 603.787V672.089V726.73H131.141V661.161H333.314V622.912H131.141V562.806V494.504V453.523H398.883V519.093H196.71V557.342H398.883V603.787Z" fill="white"></path>
<path fill-rule="evenodd" clip-rule="evenodd" d="M715.801 518.93V453.36H442.594V726.567H508.163V644.332H650.231V726.294H715.801V644.332V578.762V518.657V518.93ZM650.231 579.036H508.163V518.93H650.231V579.036Z" fill="white"></path>
<path d="M775.908 71.0338V785.142H662.636V906.883L457.84 793.775L441.776 784.923H423.58H71.1977V71.0338H776.072H775.908ZM847.105 0H0V856.176H423.471L733.615 1027.48V856.176H846.941V0H847.105Z" fill="white"></path>
<path fill-rule="evenodd" clip-rule="evenodd" d="M310.963 300.2L394.892 269.656L398.881 268.071V131.14H131.138V136.604L130.537 404.347H196.107V342.001L245.284 324.188L319.05 404.347H400.028L310.963 300.2ZM196.216 272.224V196.709H333.311V222.281L196.216 272.224Z" fill="white"></path>
</svg>